<?xml version="1.0" encoding="UTF-8"?>
<svg id="Capa_1" data-name="Capa 1" xmlns="http://www.w3.org/2000/svg" viewBox="0 0 375 117">
  <defs>
    <style>
      .cls-1 {
        fill: #f2f2f2;
      }
    </style>
  </defs>
  <path class="cls-1" d="M48.63,106.11h-13.01c-.19,0-.37-.13-.41-.32-.3-1.34-.52-3.49-.67-5.26-.03-.41-.57-.52-.77-.16-3.18,5.61-8.86,7.17-14.34,7.17C4.63,107.54.47,96.52.47,80.98v-44.76C.47,21.63,6.51,9.55,24.66,9.55c21.91,0,24.11,15.94,24.11,25.53v3.86c0,.23-.19.42-.42.42h-17.59c-.23,0-.42-.19-.42-.42v-4.82c0-4.61-.56-8.89-5.64-8.89-4.19,0-5.73,3.06-5.73,9.26v48.77c0,6.48,2.09,8.85,5.73,8.85,4.45,0,5.97-3.46,5.97-11.28v-13.23c0-.23-.19-.42-.42-.42h-5.46c-.23,0-.42-.19-.42-.42v-14.6c0-.23.19-.42.42-.42h23.83c.23,0,.42.19.42.42v53.52c0,.23-.19.42-.42.42Z"/>
  <path class="cls-1" d="M81.15,10.98c-.13,0-.24.09-.26.22-2.47,13.93-5.5,29.93-7.03,41.25h-.6c-1.17-11.92-4.13-27.58-6.68-41.26-.02-.12-.13-.21-.25-.21h-19.38c-.18,0-.3.17-.26.34l16.63,59.41c.43,1.68.67,3.4.67,4.92v30.2c0,.15.12.27.27.27h17.74c.15,0,.27-.12.27-.27v-29.5c0-1.99.2-2.94.45-4.1l16.78-60.13.32-1.14h-18.65Z"/>
  <path class="cls-1" d="M99.48,10.98v1.14l.32-1.14h-.32Z"/>
  <path class="cls-1" d="M211.98,56.13c-.8-.42-.83-1.57-.05-2.03,3.75-2.2,7.15-6.79,7.15-17.64v-3.78c0-14.7-7.8-21.7-23.97-21.7h-21.24c-.69,0-1.24.56-1.24,1.24v78.37c0,.69-.56,1.24-1.24,1.24h-3.94c-.69,0-1.24-.56-1.24-1.24V12.22c0-.69-.56-1.24-1.24-1.24h-23.84c-.62,0-1.15.46-1.23,1.07-2.87,20.57-5.95,40.11-7.39,53.64h-.4c-1.06-12.63-3.76-35.7-6.2-53.65-.08-.62-.61-1.07-1.23-1.07h-24.86s-.32,1.14-.32,1.14v92.75c0,.69.56,1.24,1.24,1.24h14.11c.69,0,1.24-.56,1.24-1.24v-28.39c0-16.4-.48-37.02-.72-48.2h.59c1.96,17.48,5.96,55.66,8.09,76.72.06.64.6,1.11,1.24,1.11h13.29c.63,0,1.15-.45,1.23-1.08,2.62-20.29,6.7-57.81,8.66-76.51h.49c-.23,11.67-.39,32.55-.39,47.27v29.07c0,.69.56,1.24,1.24,1.24h46.52c17.38,0,24.31-8.2,24.31-24.83v-7.57c0-11.18-4.58-15.44-8.66-17.59ZM190.37,26.64c0-.69.56-1.24,1.24-1.24h2.19c5.79,0,7.75,2.76,7.75,8.86v4.91c0,7.28-2.13,9.26-8.3,9.26h-1.65c-.69,0-1.24-.56-1.24-1.24v-20.54ZM202.1,81.77c0,7.05-1.54,10.07-8.07,10.07h-2.41c-.69,0-1.24-.56-1.24-1.24v-26.84c0-.69.56-1.24,1.24-1.24h1.23c7.51,0,9.25,3.15,9.25,10.53v8.73Z"/>
  <path class="cls-1" d="M242.78,65.02v40.82c0,.15-.12.27-.27.27h-17.74c-.15,0-.27-.12-.27-.27V11.25c0-.15.12-.27.27-.27h23.47c15.94,0,23.82,7,23.82,23.64v3.42c0,13.08-5.04,17.29-9.05,19.3-.18.09-.18.34,0,.43,5.61,2.86,8.25,7.33,8.25,20.26,0,9.01-.14,22.56.61,27.78.02.16-.1.29-.26.29h-17.19c-.12,0-.23-.07-.26-.19-1.13-4.47-1.05-16.67-1.05-28.64,0-10.7-1.23-12.53-8.19-12.53h-1.89c-.15,0-.27.12-.27.27ZM242.83,50.07c0,.15.12.27.27.27h2c6.11,0,8.61-1.93,8.61-10.79v-4.6c0-6.38-1.28-9.56-8.02-9.56h-2.59c-.15,0-.27.12-.27.27v24.41Z"/>
  <path class="cls-1" d="M324.89,36.43v44.13c0,18.88-8.88,26.97-25.52,26.97s-23.9-8.3-23.9-26.79v-44.81c0-18.37,10.1-26.39,24.75-26.39s24.67,7.88,24.67,26.88ZM293.98,34.37v48.63c0,5.88,2.02,8.94,6.1,8.94s6.2-2.78,6.2-9.03v-48.68c0-5.94-1.65-8.98-6.25-8.98-3.9,0-6.05,2.81-6.05,9.13Z"/>
  <path class="cls-1" d="M344.87,76.79c.15,0,.27.12.27.27v6.32c0,6.26,1.55,9.16,5.73,9.16s5.21-4.31,5.21-8.8c0-8.98-1.69-11.58-11.4-19.71-10.72-9.08-16.22-14.45-16.22-28.47s4.5-26.11,22.52-26.11c19.13,0,21.96,13.05,21.96,23.94v5.21c0,.15-.12.27-.27.27h-16.75c-.15,0-.27-.12-.27-.27v-5.43c0-5.77-.95-8.63-4.57-8.63-3.38,0-4.47,2.91-4.47,8.29,0,5.73,1.04,8.56,8.91,14.7,13.99,10.99,19.01,17.17,19.01,32.83s-5.09,27.17-23.99,27.17-23.33-10.95-23.33-25.04v-5.44c0-.15.12-.27.27-.27h17.39Z"/>
</svg>