<?xml version="1.0" encoding="UTF-8"?>
<svg id="Capa_1" data-name="Capa 1" xmlns="http://www.w3.org/2000/svg" viewBox="0 0 109 116">
  <defs>
    <style>
      .cls-1 {
        fill: #44d86d;
      }

      .cls-2 {
        fill: #111110;
      }
    </style>
  </defs>
  <rect class="cls-1" y=".29" width="109.37" height="115.71" rx="6.58" ry="6.58"/>
  <g>
    <path class="cls-2" d="M52.25,96.23h-10.23c-.15,0-.29-.1-.32-.25-.23-1.06-.41-2.75-.52-4.14-.03-.32-.45-.41-.61-.13-2.51,4.42-6.97,5.64-11.28,5.64-11.65,0-14.93-8.67-14.93-20.9v-35.22c0-11.48,4.75-20.98,19.04-20.98,17.24,0,18.97,12.54,18.97,20.09v3.04c0,.18-.15.33-.33.33h-13.84c-.18,0-.33-.15-.33-.33v-3.79c0-3.63-.44-6.99-4.44-6.99-3.3,0-4.51,2.41-4.51,7.29v38.37c0,5.1,1.64,6.96,4.51,6.96,3.5,0,4.7-2.72,4.7-8.88v-10.41c0-.18-.15-.33-.33-.33h-4.3c-.18,0-.33-.15-.33-.33v-11.49c0-.18.15-.33.33-.33h18.75c.18,0,.33.15.33.33v42.12c0,.18-.15.33-.33.33Z"/>
    <path class="cls-2" d="M86.22,56.66c3.49-1.33,7.21-4.47,7.21-14.48v-2.93c0-11.41-6.06-16.85-18.61-16.85h-17.46v62.74h-11.63v11.09h30.03c13.49,0,18.87-6.37,18.87-19.26v-5.88c0-10.29-5.01-13.03-8.42-14.44ZM71.15,33.59h2.66c4.5,0,6.02,2.14,6.02,6.87v3.82c0,5.65-1.65,7.19-6.44,7.19h-2.25v-17.87ZM80.26,77.34c0,5.11-1.05,7.49-5.32,7.79h-3.79s0-22.73,0-22.73h1.93c5.83,0,7.18,2.44,7.18,8.17v6.77Z"/>
  </g>
</svg>