<?xml version="1.0" encoding="UTF-8"?>
<svg id="Capa_1" data-name="Capa 1" xmlns="http://www.w3.org/2000/svg" viewBox="0 0 344.26 343.68">
  <defs>
    <style>
      .cls-1 {
        fill: #44d86d;
      }

      .cls-2 {
        fill: #111110;
      }
    </style>
  </defs>
  <circle class="cls-1" cx="171.77" cy="172.18" r="171.5"/>
  <path class="cls-2" d="M237.53,136.36c1.5-11.73,5.73-23.7,7.21-35.34.89-7.04,1.52-16.99-.27-23.77-2.76-10.44-14.94-29.32-25.53-32.81-.84-.28-1.83.05-2.84-.35-2.39-.95-7.56-5.94-10.53-7.7-16.24-9.61-50.18-6.16-66.36,2.85-11.93,6.64-28.87,26.22-32.63,39.38-5.1,17.85-3.96,39.29,2.4,56.63-1.08-.07-1.46-1.26-2.86-1.06-5.22.77-4.24,11.21-3.93,15.13.75,9.23,5.6,25.22,15.92,27.47.34,6.47.73,13.25,2.82,19.42,2.32,6.84,4.24,6.25,4.01,14.71-.12,4.53-.4,14.25-2.67,17.84-7.86,12.48-36.37,18.46-50,23.38-13.91,5.01-28.22,11.2-40.1,20.06C15.29,248.33,4.12,220.03,1.01,190.78-12.32,65.49,109.14-31.7,228.62,9.66c103.97,35.99,149.04,162.34,88.19,255.48-.82,1.25-4.7,7.5-5.68,7.52l-63.77-27.42c-6.86-3.33-23.26-11.97-26.45-18.67-1.52-3.19-2.87-14.97-3-18.87-.14-4.21,1.98-6.47,3.3-10.36,1.77-5.18,3.08-10.84,4.33-16.18,2.66-3.42,7.39-4.72,10.05-8.18,3.25-4.22,8.2-23.25,7.77-28.58-.31-3.81-1.48-7.74-5.84-8.07v.02Z"/>
</svg>